<svg width="31" height="31" viewBox="0 0 31 31" fill="none" xmlns="http://www.w3.org/2000/svg">
<rect x="0.5" y="0.5" width="30" height="30" fill="#0077B5" stroke="#DFDEDE"/>
<path d="M18.4286 10.5713H11.5696C11.2554 10.5713 11 10.8302 11 11.1481V17.9945C11 18.3124 11.2554 18.5713 11.5696 18.5713H18.4286C18.7429 18.5713 19 18.3124 19 17.9945V11.1481C19 10.8302 18.7429 10.5713 18.4286 10.5713ZM13.4179 17.4284H12.2321V13.6106H13.4196V17.4284H13.4179ZM12.825 13.0891C12.4446 13.0891 12.1375 12.7802 12.1375 12.4016C12.1375 12.0231 12.4446 11.7141 12.825 11.7141C13.2036 11.7141 13.5125 12.0231 13.5125 12.4016C13.5125 12.782 13.2054 13.0891 12.825 13.0891ZM17.8625 17.4284H16.6768V15.5713C16.6768 15.1284 16.6679 14.5588 16.0607 14.5588C15.4429 14.5588 15.3482 15.0409 15.3482 15.5391V17.4284H14.1625V13.6106H15.3V14.132H15.3161C15.475 13.832 15.8625 13.5159 16.4393 13.5159C17.6393 13.5159 17.8625 14.307 17.8625 15.3356V17.4284Z" fill="white"/>
</svg>
