<svg width="31" height="31" viewBox="0 0 31 31" fill="none" xmlns="http://www.w3.org/2000/svg">
<rect x="0.5" y="0.5" width="30" height="30" fill="#4CA6EC" stroke="#DFDEDE"/>
<path d="M18.1777 13.3707C18.1827 13.4418 18.1827 13.5129 18.1827 13.5839C18.1827 15.7514 16.533 18.2489 13.5178 18.2489C12.5888 18.2489 11.7259 17.9799 11 17.5129C11.132 17.5281 11.2589 17.5332 11.3959 17.5332C12.1624 17.5332 12.868 17.2743 13.4315 16.8327C12.7107 16.8175 12.1066 16.3454 11.8985 15.6956C12 15.7108 12.1015 15.721 12.2081 15.721C12.3553 15.721 12.5026 15.7007 12.6396 15.6652C11.8883 15.5129 11.3249 14.853 11.3249 14.056V14.0357C11.5431 14.1576 11.797 14.2337 12.066 14.2438C11.6243 13.9494 11.335 13.4469 11.335 12.8784C11.335 12.5738 11.4162 12.2946 11.5584 12.051C12.3655 13.0459 13.5787 13.6956 14.9391 13.7667C14.9137 13.6449 14.8984 13.518 14.8984 13.3911C14.8984 12.4875 15.6294 11.7515 16.5381 11.7515C17.0101 11.7515 17.4365 11.9494 17.736 12.2692C18.1066 12.1982 18.4619 12.0611 18.7766 11.8733C18.6548 12.254 18.3959 12.5738 18.0558 12.7768C18.3858 12.7413 18.7056 12.6499 19 12.523C18.7767 12.8479 18.4974 13.1372 18.1777 13.3707Z" fill="white"/>
</svg>
